<svg id="Capa_1" enable-background="new 0 0 511.983 511.983" height="512" viewBox="0 0 511.983 511.983" width="512" xmlns="http://www.w3.org/2000/svg"><g><ellipse cx="322.602" cy="189.381" fill="#f2fbff" rx="181.776" ry="165.38" transform="matrix(.707 -.707 .707 .707 -39.425 283.583)"/><path d="m451.137 60.846c-.001-.001-.002-.002-.003-.003l-257.07 257.07.003.003c64.585 64.585 174.488 59.394 245.476-11.593s76.179-180.892 11.594-245.477z" fill="#cfe1f3"/><g><path d="m352.488 365.231c-61.275 7.933-119.479-7.476-160.128-48.126-40.964-40.964-56.288-99.753-47.93-161.549-2.597 2.031-4.501 4.896-5.321 8.202l-45.502 183.428c-1.266 5.104.233 10.499 3.952 14.218l53.021 53.021c3.719 3.719 9.114 5.219 14.218 3.952l183.424-45.504c3.15-.782 5.895-2.549 7.905-4.96-1.077-.95-2.332-1.866-3.639-2.682z" fill="#cfe1f3"/></g><path d="m352.488 365.231c-60.642 7.851-118.264-7.176-158.851-46.89l-69.571 69.571 26.513 26.513c3.719 3.719 9.114 5.219 14.218 3.952l183.424-45.504c3.15-.782 5.895-2.549 7.905-4.96-1.076-.95-2.331-1.866-3.638-2.682z" fill="#a4b3ca"/><path d="m94.611 343.138-79.262 79.262c-20.466 20.466-20.466 53.767 0 74.233s53.767 20.466 74.233 0l79.261-79.261z" fill="#6e63b4"/><path d="m511.609 179.496c3.159-50.842-13.777-97.518-47.691-131.431-33.913-33.913-80.59-50.85-131.431-47.69-50.138 3.115-98.404 25.484-135.905 62.985-37.502 37.502-59.871 85.767-62.986 135.906-3.16 50.841 13.777 97.518 47.69 131.431 33.913 33.914 80.589 50.85 131.431 47.691 50.139-3.116 98.404-25.485 135.906-62.987 37.501-37.501 59.87-85.767 62.986-135.905zm-301.41 31.098 34.988 34.988-52.683 52.683c-11.001-13.879-18.86-29.627-23.641-46.405.242-.213.487-.418.718-.649zm224.806-42.427-34.988-34.988 52.683-52.683c11.001 13.879 18.86 29.627 23.641 46.404-.242.213-.487.418-.718.649zm2.598 115.001-37.586-37.586 34.988-34.988 30.147 30.147c-7.015 14.885-16.21 29.202-27.549 42.427zm-58.8-58.799-34.988-34.988 34.988-34.988 34.988 34.988zm0-112.403-34.988-34.988 40.618-40.618c.231-.231.436-.476.649-.718 16.777 4.781 32.525 12.64 46.405 23.641zm-21.213 21.213-34.988 34.988-34.988-34.988 34.988-34.988zm-91.189-21.213-37.586-37.586c13.224-11.34 27.542-20.535 42.427-27.549l30.146 30.146zm-58.799-16.373 37.586 37.586-34.988 34.988-30.146-30.146c7.013-14.885 16.208-29.203 27.548-42.428zm58.799 58.799 34.988 34.988-34.988 34.988-34.988-34.988zm0 112.403 34.988 34.988-40.618 40.618c-.231.231-.436.476-.649.718-16.777-4.78-32.525-12.64-46.404-23.641zm21.213-21.213 34.988-34.988 34.988 34.988-34.988 34.988zm91.189 21.213 37.586 37.586c-13.225 11.34-27.542 20.535-42.428 27.549l-30.147-30.147zm97.661-57.168-20.246-20.246 25.661-25.661c.386 15.157-1.432 30.631-5.415 45.907zm-128.201-179.523-25.661 25.661-20.246-20.246c15.275-3.983 30.749-5.801 45.907-5.415zm-179.523 139.031 20.245 20.245-25.661 25.661c-.385-15.157 1.433-30.631 5.416-45.906zm128.2 179.523 25.661-25.661 20.246 20.246c-15.275 3.983-30.748 5.801-45.907 5.415z" fill="#e00f5b"/><path d="m15.347 496.63c.001.001.002.002.003.003 20.466 20.466 53.767 20.466 74.233 0l79.261-79.261-37.119-37.12z" fill="#463d82"/><path d="m463.918 48.065c-.001-.001-.002-.002-.003-.003l-282.632 282.632c.001.001.002.002.003.003 33.913 33.914 80.589 50.85 131.431 47.691 50.139-3.116 98.404-25.485 135.906-62.987 37.501-37.501 59.87-85.767 62.986-135.905 3.159-50.842-13.777-97.518-47.691-131.431zm17.961 115.654c.385 15.158-1.432 30.632-5.416 45.907l-20.246-20.246zm-103.076-9.326 34.988 34.988-34.988 34.988-34.988-34.988zm-56.201 56.201 34.988 34.988-34.988 34.988-34.988-34.988zm-108.885 108.885 52.683-52.683 34.988 34.988-40.618 40.618c-.231.231-.436.476-.649.718-16.777-4.781-32.525-12.64-46.404-23.641zm261.906-191.93-40.618 40.618-34.988-34.988 52.683-52.683c11.001 13.879 18.86 29.627 23.641 46.404-.242.213-.487.418-.718.649zm-178.683 221.109 25.661-25.661 20.246 20.246c-15.275 3.983-30.748 5.801-45.907 5.415zm77.022-16.728-30.147-30.147 34.988-34.988 37.586 37.586c-13.224 11.34-27.542 20.535-42.427 27.549zm63.641-48.762-37.586-37.586 34.988-34.988 30.147 30.147c-7.015 14.885-16.21 29.202-27.549 42.427z" fill="#bf1a6b"/></g></svg>