<svg id="Layer_1" enable-background="new 0 0 150 150" height="512" viewBox="0 0 150 150" width="512" xmlns="http://www.w3.org/2000/svg"><g><path d="m138.905 35.731c.862 1.38 1.648 2.798 2.414 4.235-.766-1.38-1.571-2.856-2.414-4.235z" fill="#ebf0f3"/><path d="m113.171 10.437 1.38.843z" fill="#ebf0f3"/><path d="m101.309 47.496c-19.679 27.517-27.631 33.534-30.659 34.492.517 4.503 3.449 24.182 12.762 40.029 5.116-3.353 30.947-21.078 45.567-47.503 11.133-20.063 11.018-32.863 9.888-38.841-6.028-9.753-14.2-18.004-23.895-24.125 1.935 8.47-2.644 20.561-13.663 35.948z" fill="#44c4a1"/><path d="m48.863 4.688.479-.192z" fill="#ebf0f3"/><path d="m11.765 115.368-1.341-2.165z" fill="#ebf0f3"/><path d="m9.044 39.256.096-.153z" fill="#ebf0f3"/><path d="m13.969 118.549-1.495-2.127z" fill="#ebf0f3"/><path d="m69.002 149.725c-.92 0-1.916-.153-2.759-.249.92.096 1.84.249 2.759.249z" fill="#ebf0f3"/><path d="m107.863 142.425-1.801.824z" fill="#ebf0f3"/><path d="m111.791 24.253c1.916-6.189 1.916-10.443.958-13.279-.115-.345-.249-.671-.364-.996-18.328-10.54-40.25-12.863-60.379-6.4 14.247-.058 28.352 2.833 41.428 8.489 6.806 2.917 13.026 7.046 18.357 12.186z" fill="#e56353"/><path d="m36.331 107.109c-4.22-12.003-7.049-24.45-8.431-37.098-6.934-.318-13.874.504-20.542 2.434-.6 15.899 1.806 31.768 7.09 46.774 12.129 16.622 30.562 27.522 50.971 30.142-12.302-8.738-22.228-23.071-29.088-42.252z" fill="#e56353"/><path d="m82.301 124.106v-.134l-.096-.192c-2.786-4.644-5.116-9.546-6.956-14.64-3.192-8.833-5.403-17.99-6.592-27.306-7.783-4.265-16.094-7.487-24.719-9.581-4.567-1.113-9.221-1.831-13.912-2.146 1.362 12.412 4.14 24.627 8.278 36.408 5.346 14.851 14.908 33.169 31.464 43.306 1.763.115 3.526.211 5.327.211 10.398.007 20.683-2.153 30.199-6.343-9.063-2.893-16.881-9.542-22.993-19.583z" fill="#fcd462"/><path d="m5.327 73.077c-1.811.625-3.589 1.341-5.327 2.146.03 13.212 3.568 26.18 10.252 37.577-3.657-12.912-5.317-26.308-4.925-39.723z" fill="#44c4a1"/><path d="m6.285 70.682c7.253-2.163 14.824-3.058 22.381-2.644h.345c5.168.288 10.299 1.045 15.33 2.261 8.869 2.161 17.412 5.485 25.409 9.888.92-.153 7.282-2.414 29.28-33.016-8.573-4.746-17.762-8.28-27.306-10.501-20.742-5.024-42.48-4.094-62.717 2.683-5.609 10.375-8.675 21.933-8.95 33.724 1.942-.872 3.931-1.633 5.959-2.28z" fill="#27a2db"/><path d="m150 74.994c.008-12.143-2.939-24.105-8.585-34.856.23 7.32-1.61 18.99-10.692 35.335-14.889 26.827-41.141 44.897-46.276 48.25 5.327 8.47 12.589 15.598 22.439 18.338l1.092.307c25.722-12.594 42.027-38.735 42.022-67.374z" fill="#e56353"/><path d="m72.279 34.753c9.789 2.271 19.203 5.93 27.957 10.865 4.37-5.923 8-12.358 10.807-19.162-5.3-5.337-11.587-9.593-18.51-12.532-9.581-4.331-24.719-8.757-45.989-8.22-15.045 6.164-27.694 17.026-36.062 30.966 20.043-6.235 41.406-6.897 61.797-1.917z" fill="#fcd462"/><g fill="#d5d6db"><path d="m107.978 142.367-.115.058z"/><path d="m12.474 116.422-.709-1.054z"/><path d="m65.419 149.4h.766l-.824-.115z"/><path d="m14.448 119.258c-.172-.211-.326-.441-.479-.671.173.192.326.479.479.671z"/><path d="m105.218 143.651.843-.402-.862.402z"/><path d="m141.415 40.119-.095-.154.095.173z"/><path d="m69.692 149.725h-.671z"/><path d="m10.271 112.877.191.326-.21-.384z"/><path d="m112.366 9.958.786.46z"/><path d="m114.953 11.529-.403-.249.422.268z"/><path d="m138.867 35.654v.019l.038.058z"/><path d="m52.006 3.577c-.901.287-1.801.594-2.683.92.901-.326 1.801-.613 2.721-.92z"/><path d="m46.487 5.608 2.357-.92c-.786.288-1.571.594-2.357.92z"/><path d="m9.006 39.333.038-.077z"/><path d="m10.462 36.67c-.46.792-.901 1.578-1.322 2.357.422-.786.881-1.571 1.341-2.357z"/><path d="m.057 73.077v1.916.249-.249c-.057-.67-.019-1.322 0-1.916z"/></g><path d="m84.447 123.722c5.135-3.353 31.387-21.423 46.276-48.25 9.083-16.345 10.922-28.015 10.692-35.335v-.172c-.766-1.437-1.552-2.855-2.414-4.235 1.131 5.979 1.246 18.779-9.888 38.841-14.621 26.348-40.451 44.073-45.567 47.503-9.447-15.904-12.379-35.584-12.934-40.01 3.066-1.035 11.018-7.052 30.659-34.492 11.018-15.33 15.598-27.478 13.662-35.948l-.422-.268-1.38-.843-.786-.46c.115.326.249.652.364.996.881 2.836 1.054 7.09-.958 13.279-5.314-5.134-11.514-9.263-18.3-12.187-13.075-5.684-27.187-8.6-41.445-8.564-.92.307-1.916.594-2.721.92l-.479.192-2.357.92c21.308-.537 36.408 3.832 45.989 8.22 6.924 2.938 13.211 7.195 18.51 12.532-2.808 6.804-6.437 13.239-10.807 19.162-8.729-4.893-18.111-8.519-27.862-10.769-20.391-4.981-41.754-4.318-61.797 1.916-.46.786-.92 1.571-1.341 2.357l-.097.153c20.241-6.713 41.965-7.583 62.679-2.51 9.559 2.23 18.761 5.777 27.344 10.539-21.998 30.659-28.36 32.863-29.28 33.016-8.008-4.405-16.565-7.73-25.447-9.888-5.031-1.216-10.162-1.973-15.33-2.261h-.345c-7.557-.413-15.129.481-22.381 2.644l-.364.115c-1.995.638-3.952 1.386-5.864 2.242v1.916.249c1.719-.81 3.478-1.533 5.27-2.165-.393 13.415 1.268 26.81 4.925 39.723l.211.383 1.341 2.165.671 1.054 1.495 2.127c.153.23.307.46.479.671-5.284-15.007-7.69-30.876-7.09-46.774 6.669-1.923 13.608-2.738 20.542-2.414 1.383 12.648 4.212 25.095 8.431 37.098 6.86 19.162 16.786 33.514 29.088 42.156l.824.115c.92 0 1.916.192 2.759.249h.671c-16.556-10.137-26.118-28.456-31.464-43.306-4.138-11.781-6.916-23.996-8.278-36.408 4.69.315 9.345 1.033 13.912 2.146 8.625 2.094 16.936 5.316 24.719 9.581 1.189 9.316 3.4 18.473 6.592 27.306 1.84 5.093 4.169 9.996 6.956 14.64l.096.192v.134c6.189 10.041 13.931 16.69 22.994 19.545l.862-.402 1.801-.824h.115l-1.092-.307c-9.85-2.607-17.112-9.735-22.439-18.205z" fill="#ebf0f3"/></g></svg>